{"title":"Apollo 18 2011 R5 LiNE XViD DTRG","uid":6790840,"size":1474960131,"categoryP":"video","categoryS":"movies","magnet":"?xt=urn:btih:e27905a90222a00d71633b97e8b5eebfa22486d8&amp;dn=Apollo+18+2011+R5+LiNE+XViD+DTRG&amp;tr=udp%3A%2F%2Ftracker.openbittorrent.com%3A80&amp;tr=udp%3A%2F%2Fopen.demonii.com%3A1337&amp;tr=udp%3A%2F%2Ftracker.coppersurfer.tk%3A6969&amp;tr=udp%3A%2F%2Fexodus.desync.com%3A6969","seeders":0,"leechers":0,"uploader":"SAFCukO09","files":4,"time":1320258284,"description":"Format : AVI\nFormat/Info : Audio Video Interleave\nFile size : 1.35 GiB\nDuration : 1h 23mn\nOverall bit rate : 2 329 Kbps\nWriting application : VirtualDubMod 1.5.4.1 (build 2178/release)\nWriting library : VirtualDub build 32842/release\n\nVideo\nID : 0\nFormat : MPEG-4 Visual\nFormat profile : Advanced Simple@L5\nFormat settings, BVOP : 2\nFormat settings, QPel : No\nFormat settings, GMC : No warppoints\nFormat settings, Matrix : Default (H.263)\nMuxing mode : Packed bitstream\nCodec ID : XVID\nCodec ID/Hint : XviD\nDuration : 1h 23mn\nBit rate : 1 935 Kbps\nWidth : 720 pixels\nHeight : 384 pixels\nDisplay aspect ratio : 1.875\nFrame rate : 25.000 fps\nColor space : YUV\nChroma subsampling : 4:2:0\nBit depth : 8 bits\nScan type : Progressive\nCompression mode : Lossy\nBits/(Pixel*Frame) : 0.280\nStream size : 1.12 GiB (83%)\nWriting library : XviD 64\n\nAudio\nID : 1\nFormat : AC-3\nFormat/Info : Audio Coding 3\nMode extension : CM (complete main)\nCodec ID : 2000\nDuration : 1h 23mn\nBit rate mode : Constant\nBit rate : 384 Kbps\nChannel(s) : 6 channels\nChannel positions : Front: L C R, Side: L R, LFE\nSampling rate : 48.0 KHz\nBit depth : 16 bits\nCompression mode : Lossy\nStream size : 228 MiB (16%)\nAlignment : Split accross interleaves\nInterleave, duration : 40 ms (1.00 video frame)\n\n\n\n\n\n\n\n\n\n &lt;a href=&quot;\nhttp://www.imdb.com/title/tt1772240/&quot; rel=&quot;nofollow&quot; target=&quot;_NEW&quot;&gt;\nhttp://www.imdb.com/title/tt1772240/&lt;/a&gt;\n\n\n\nRatings: 5.6/10 from 5,674 users Metascore: 24/100\nReviews: 154 user | 96 critic | 19 from Metacritic.com\n\nDecades-old found footage from NASA's abandoned Apollo 18 mission, where two American astronauts were sent on a secret expedition, reveals the reason the U.S. has never returned to the moon.\nDirector:\nGonzalo LÃƒÂ³pez-Gallego\nWriters:\nBrian Miller (screenplay), Cory Goodman\nStars:\nWarren Christie, Ryan Robbins and Ali Liebert\n\n\n\n\n\n\n\n\n\n\n\n\n\n\n\n\n\nSource Used\n\n\nRussian DVD9 .........Thanks\nMiSTERE .....................Thanks matey\n\n\nJust my take on it with filters ......Sample included so check it out\n\nAR Changes alot but meant to be like that its way it was filmed\n\n\nEnjoy\n\n\n\n\n\nGreetz to IMAGiNE,Flawl3ss,EMBER,CreWsaDe,ETRG,BHRG,iLLUMiNATi,ViSUALiSE,MiSTERE\n","torrent":{"xt":"urn:btih:e27905a90222a00d71633b97e8b5eebfa22486d8","amp;dn":"Apollo+18+2011+R5+LiNE+XViD+DTRG","amp;tr":["udp%3A%2F%2Ftracker.openbittorrent.com%3A80","udp%3A%2F%2Fopen.demonii.com%3A1337","udp%3A%2F%2Ftracker.coppersurfer.tk%3A6969","udp%3A%2F%2Fexodus.desync.com%3A6969"],"infoHash":"e27905a90222a00d71633b97e8b5eebfa22486d8","infoHashBuffer":{"type":"Buffer","data":[226,121,5,169,2,34,160,13,113,99,59,151,232,181,238,191,162,36,134,216]},"announce":[],"urlList":[]}}